<?xml version="1.0" encoding="UTF-8"?>
<svg id="OBJECTS" xmlns="http://www.w3.org/2000/svg" viewBox="0 0 56.49 64.08">
  <defs>
    <style>
      .cls-1 {
        fill: #cf9885;
      }
    </style>
  </defs>
  <path class="cls-1" d="m56.37,60.53c-3.95-6.59-9.88-11.58-15.9-16.22-6.26-4.83-12.84-9.29-19.96-12.77-3.96-1.93-8.07-3.55-12.31-4.75-1-.28-1.42,1.27-.43,1.55,7.33,2.08,14.2,5.43,20.64,9.46,6.45,4.04,12.73,8.64,18.35,13.79,3.15,2.89,6,6.07,8.21,9.74.53.89,1.92.08,1.39-.81h0Z"/>
  <path class="cls-1" d="m18.66,30.65c-4.53-2.71-6.45-7.78-7.5-12.68-.57-2.7-1.08-5.41-1.62-8.12-.58-2.92-1.19-5.89-.51-8.84-.45.12-.9.24-1.34.35,4.36,4.65,6.1,10.98,9.76,16.1.95,1.33,2.23,2.56,2.78,4.13.46,1.3.36,2.74.25,4.09-.21,2.63-.75,5.49.73,7.86.55.88,1.94.07,1.39-.81-1.55-2.47-.48-5.78-.43-8.5.02-1.3-.13-2.61-.69-3.8-.71-1.52-1.93-2.74-2.88-4.1C15.02,11.15,13.21,4.9,8.83.23c-.4-.43-1.21-.23-1.34.35-.68,2.93-.24,5.86.33,8.77.62,3.17,1.21,6.35,1.9,9.5,1.13,5.16,3.4,10.36,8.14,13.18.89.53,1.7-.86.81-1.39h0Z"/>
  <path class="cls-1" d="m25.54,34.23c-1.89-.79-3.62-1.79-5.75-1.11-3.13.99-4.19,4.6-6.8,6.33-2.48,1.65-5.65,2.16-7.98,4-1.17.92-1.81,2.24-2.47,3.55-.85,1.67-1.67,3.36-2.45,5.06-.32.7.35,1.52,1.1,1.1,2.57-1.46,5.64-.67,8.45-.73,2.51-.05,4.94-.82,7.06-2.14,2.1-1.31,3.84-3.12,5.15-5.21,1.68-2.66,2.91-5.45,5.18-7.7.74-.73-.4-1.87-1.14-1.14-2.04,2.02-3.35,4.44-4.76,6.91-1.39,2.42-3.14,4.51-5.57,5.95-2.36,1.39-4.86,1.82-7.56,1.7-2.62-.12-5.25-.36-7.62.98l1.1,1.1c.69-1.49,1.4-2.97,2.13-4.43.69-1.37,1.3-2.97,2.6-3.88,2.2-1.54,4.99-2.09,7.27-3.5,1.09-.68,2.05-1.51,2.85-2.51.95-1.19,1.75-2.66,3.08-3.48,2.01-1.24,3.82-.06,5.7.72.95.4,1.37-1.16.43-1.55h0Z"/>
  <path class="cls-1" d="m36.04,40.8c-5.19-1.92-5.66-8.19-5.79-12.89-.07-2.75-.22-5.42-.83-8.11-.69-3.05-1.02-6.03-1.01-9.16-.4.23-.81.46-1.21.69,4.43,3.21,8.79,8.02,10.28,13.4.41,1.47.5,2.98.12,4.46-.34,1.33-.88,2.58-1.09,3.94-.42,2.79.11,5.67-.66,8.41-.28,1,1.27,1.42,1.55.43.85-3.02.14-6.18.81-9.21.33-1.5,1-2.89,1.18-4.42.18-1.5-.04-3.02-.49-4.45-1.75-5.63-6.21-10.54-10.9-13.94-.51-.37-1.21.13-1.21.69,0,3.27.35,6.39,1.07,9.58.75,3.33.67,6.65.86,10.03.28,4.9,1.84,10.23,6.88,12.1.97.36,1.39-1.19.43-1.55h0Z"/>
  <path class="cls-1" d="m37.19,42.27c-5.22.48-7.25,5.66-9.78,9.46-.74,1.12-1.6,2.17-2.69,2.97-1.04.76-2.22,1.27-3.34,1.89-2.29,1.25-2.76,4.2-3.58,6.48-.2.57.43,1.18.99.99,3.17-1.06,6.57-.34,9.8-1.09,2.86-.66,5.31-2.66,7.32-4.72,1.92-1.98,3.6-4.42,4.11-7.17.5-2.67.14-5.59-1.31-7.93-.55-.88-1.94-.07-1.39.81,1.32,2.12,1.62,4.86,1.02,7.27-.64,2.58-2.37,4.78-4.27,6.57-2.13,2-4.45,3.56-7.43,3.86-2.78.27-5.59-.06-8.28.84.33.33.66.66.99.99.45-1.24.87-2.48,1.34-3.71.49-1.29,1.34-1.72,2.51-2.32,2.01-1.04,3.68-2.28,5.04-4.11,2.43-3.28,4.17-9.03,8.95-9.47,1.02-.09,1.03-1.7,0-1.61h0Z"/>
  <path class="cls-1" d="m2.33,51.52c2.84-3.54,6.99-5.82,10.73-8.28,3.86-2.54,7.74-5.06,11.15-8.2.38-.35-.19-.92-.57-.57-3.56,3.28-7.64,5.88-11.67,8.53-3.58,2.35-7.48,4.56-10.2,7.95-.32.4.24.97.57.57h0Z"/>
  <path class="cls-1" d="m3.15,51.37c4.38-.4,7.83-3.18,11.05-5.94,1.78-1.53,3.57-3.09,5.62-4.26,1.81-1.03,3.85-1.64,5.38-3.11.37-.36-.2-.93-.57-.57-1.47,1.42-3.47,1.99-5.21,2.98-1.78,1.01-3.37,2.32-4.92,3.64-3.32,2.83-6.79,6.03-11.34,6.45-.51.05-.52.85,0,.8h0Z"/>
  <path class="cls-1" d="m8.33,51.85c5.34-2.52,10.28-5.81,14.66-9.77.38-.35-.19-.91-.57-.57-4.33,3.91-9.22,7.16-14.5,9.65-.47.22-.06.91.41.69h0Z"/>
  <path class="cls-1" d="m28.25,12.33c1.79,5.29,3.63,10.68,4.06,16.29.35,4.45-1.02,9.94,2.57,13.43.37.36.94-.21.57-.57-1.88-1.83-2.28-4.42-2.3-6.94-.01-2.61.1-5.17-.24-7.78-.65-5.03-2.28-9.86-3.9-14.64-.17-.49-.94-.28-.78.21h0Z"/>
  <path class="cls-1" d="m36.68,40.53c-.86-1.75-.58-4.23-.61-6.14-.03-1.84-.03-3.67-.08-5.51-.1-3.69-.39-7.37-1.35-10.94-.13-.5-.91-.29-.78.21,1.06,3.92,1.28,7.96,1.35,11.99.03,1.98.03,3.96.09,5.93.05,1.62-.04,3.36.69,4.85.23.47.92.06.69-.41h0Z"/>
  <path class="cls-1" d="m29.09,22.91c1.16,4.09,1.59,8.33,1.27,12.56-.04.52.77.51.8,0,.32-4.3-.12-8.63-1.3-12.77-.14-.5-.92-.29-.78.21h0Z"/>
  <path class="cls-1" d="m20.47,61.87c2.93-3.66,7.95-4.23,11.81-6.49,1.95-1.14,3.55-2.75,4.54-4.8,1.08-2.24,1.41-4.74,1.69-7.19.06-.51-.75-.51-.8,0-.28,2.47-.63,5.04-1.83,7.26-1.14,2.11-2.97,3.57-5.09,4.61-3.71,1.83-8.18,2.65-10.89,6.03-.32.4.25.97.57.57h0Z"/>
  <path class="cls-1" d="m25.46,55.55c2.43-1.55,4.78-3.3,6.89-5.26,1.91-1.78,3.56-4.05,3.5-6.77-.01-.52-.82-.52-.8,0,.06,2.66-1.69,4.78-3.56,6.47-2,1.81-4.17,3.42-6.43,4.87-.43.28-.03.97.41.69h0Z"/>
  <path class="cls-1" d="m25.08,62.49c3.02-2.23,6.3-4.62,10.22-4.68.52,0,.52-.81,0-.8-4.08.06-7.47,2.46-10.62,4.79-.41.3-.01,1,.41.69h0Z"/>
  <path class="cls-1" d="m8,2.66c1.67,9.39,3.44,18.98,8.4,27.28.26.44.96.04.69-.41C12.18,21.3,10.44,11.76,8.78,2.44c-.09-.51-.87-.29-.78.21h0Z"/>
  <path class="cls-1" d="m9.09,2.14c2.44,10.52,5.95,20.76,10.45,30.57.22.47.91.06.69-.41C15.76,22.55,12.29,12.37,9.87,1.92c-.12-.5-.89-.29-.78.21h0Z"/>
  <path class="cls-1" d="m13.3,9.62c1.63,6.82,4.11,13.4,7.39,19.59.24.46.94.05.69-.41-3.25-6.14-5.7-12.65-7.3-19.4-.12-.5-.9-.29-.78.21h0Z"/>
</svg>